<svg height="496pt" viewBox="-32 0 496 496" width="496pt" xmlns="http://www.w3.org/2000/svg"><g fill="#231f20"><path d="m416 432v-72c0-64.367188-59.039062-71.960938-104.441406-71.960938h-.359375l-79.199219 7.960938c-13.253906 0-24-10.746094-24-24 0-.480469-.042969-.960938-.128906-1.433594-10.160156-55.847656-10.351563-122.679687-.800782-198.566406h.929688c8.835938 0 16-7.164062 16-16v-40c0-8.835938-7.164062-16-16-16h-192c-8.835938 0-16 7.164062-16 16v40c0 8.835938 7.164062 16 16 16h.984375c12.304687 90.894531 6.398437 232.328125-.570313 360h-.414062c-8.835938 0-16 7.164062-16 16v32c0 8.835938 7.164062 16 16 16h136c4.417969 0 8-3.582031 8-8v-40h3.054688l21.785156 43.574219c1.355468 2.714843 4.128906 4.425781 7.160156 4.425781h224c8.835938 0 16-7.164062 16-16v-32c0-8.835938-7.164062-16-16-16zm-224-159.199219c.527344 22.019531 18.6875 39.503907 40.710938 39.199219h.082031l79.207031-8c52.960938 0 79.273438 11.710938 86.097656 39.472656-50.320312-10.144531-114.097656-9.992187-200.371094.527344-30.183593-.105469-54.796874-24.222656-55.511718-54.398438l-6.214844-217.601562h54.902344c-9.503906 76.414062-9.132813 143.910156 1.097656 200.800781zm-176-256.800781h192v40h-192zm17.199219 56h86.839843v.222656l6.226563 217.832032c.921875 39.042968 32.945313 70.152343 72 69.945312.320313 0 .644531-.015625.964844-.054688 86.699219-10.601562 149.976562-10.648437 199.160156-.121093.53125.113281 1.070313.171875 1.609375.175781v72h-367.550781c6.894531-127.097656 12.796875-267.847656.75-360zm110.800781 408h-128v-32h128zm52.945312 0-16-32h235.054688v32zm0 0"/><path d="m56 416h80c4.417969 0 8-3.582031 8-8s-3.582031-8-8-8h-80c-4.417969 0-8 3.582031-8 8s3.582031 8 8 8zm0 0"/><path d="m160 416h8c4.417969 0 8-3.582031 8-8s-3.582031-8-8-8h-8c-4.417969 0-8 3.582031-8 8s3.582031 8 8 8zm0 0"/></g></svg>