<svg id="Capa_1" enable-background="new 0 0 512 512" height="512" viewBox="0 0 512 512" width="512" xmlns="http://www.w3.org/2000/svg"><path d="m63.232 129.434.113-.087 46.789-35.798v-34.058h30v32.6l46.962 37.389c20.778 16.224 37.705 34.806 50.488 55.353l5.677-54.549c3.457-33.203-7.379-66.468-29.729-91.265-22.349-24.797-54.314-39.019-87.697-39.019-32.467 0-62.725 12.904-85.2 36.334-22.476 23.431-34.109 54.2-32.76 86.639l2.719 65.301c13.015-21.937 30.68-41.705 52.638-58.84z"/><path d="m168.581 153.085-.115-.091-42.467-33.81-44.367 33.945c-34.939 27.282-56.903 61.622-63.509 98.522 11.978-17.198 27.111-33.095 45.109-47.139l.113-.087 63.021-48.217 60.725 48.347c17.26 13.476 31.944 28.67 43.752 45.054l.31-2.98c-7.64-35.01-29.191-67.496-62.572-93.544z"/><path d="m168.581 228.163-42.582-33.901-44.365 33.944c-37.613 29.371-60.546 67.662-64.875 108.152l3.464 83.2c2.157 51.836 44.49 92.442 96.372 92.442 49.562 0 90.806-37.174 95.938-86.47l12.9-123.947c-10.658-27.236-30.141-52.577-56.852-73.42z"/><path d="m448.768 129.434-.113-.087-46.789-35.798v-34.058h-30v32.6l-46.962 37.389c-20.778 16.224-37.705 34.806-50.488 55.353l-5.677-54.549c-3.457-33.203 7.379-66.468 29.729-91.265 22.349-24.797 54.314-39.019 87.697-39.019 32.467 0 62.725 12.904 85.2 36.334 22.476 23.431 34.109 54.2 32.76 86.639l-2.719 65.301c-13.015-21.937-30.68-41.705-52.638-58.84z"/><path d="m343.419 153.085.115-.091 42.467-33.81 44.367 33.945c34.939 27.282 56.903 61.622 63.509 98.522-11.978-17.198-27.111-33.095-45.109-47.139l-.113-.087-63.021-48.217-60.725 48.347c-17.26 13.476-31.944 28.67-43.752 45.054l-.31-2.98c7.64-35.01 29.191-67.496 62.572-93.544z"/><path d="m343.419 228.163 42.582-33.901 44.365 33.944c37.613 29.371 60.546 67.662 64.875 108.152l-3.464 83.2c-2.157 51.836-44.49 92.442-96.372 92.442-49.562 0-90.806-37.174-95.938-86.47l-12.9-123.947c10.658-27.236 30.141-52.577 56.852-73.42z"/></svg>