<?xml version="1.0"?>
<svg xmlns="http://www.w3.org/2000/svg" id="Capa_1" enable-background="new 0 0 512 512" height="512px" viewBox="0 0 512 512" width="512px" class=""><g><path d="m392 1c-66.168 0-120 53.832-120 120 0 51.365 7.709 102.891 15.165 152.72 7.293 48.743 14.835 99.147 14.835 148.28 0 49.626 40.374 90 90 90s90-40.374 90-90c0-49.133 7.542-99.537 14.835-148.28 7.456-49.829 15.165-101.355 15.165-152.72 0-66.168-53.832-120-120-120zm0 30c49.626 0 90 40.374 90 90 0 24.576-1.887 49.471-4.686 74.316-11.808-21.13-28.576-39.518-49.398-53.399l-20.916-13.945v-21.972c0-8.284-6.716-15-15-15s-15 6.716-15 15v21.972l-20.917 13.945c-20.822 13.881-37.589 32.269-49.397 53.399-2.799-24.845-4.686-49.74-4.686-74.316 0-49.626 40.374-90 90-90zm60 391c0 33.084-26.916 60-60 60s-60-26.916-60-60c0-50.967-7.59-102.089-14.991-151.557.184-41.722 20.978-80.406 55.715-103.564l19.276-12.851 19.275 12.851c34.738 23.158 55.532 61.842 55.716 103.564-7.401 49.468-14.991 100.59-14.991 151.557z" data-original="#000000" class="active-path" data-old_color="#000000" fill="#FFFFFF"/><path d="m120 0c-66.168 0-120 53.832-120 120 0 51.365 7.709 102.891 15.165 152.72 7.293 48.743 14.835 99.147 14.835 148.28 0 49.626 40.374 90 90 90s90-40.374 90-90c0-49.133 7.542-99.537 14.835-148.28 7.456-49.829 15.165-101.355 15.165-152.72 0-66.168-53.832-120-120-120zm60 421c0 33.084-26.916 60-60 60s-60-26.916-60-60c0-50.967-7.59-102.089-14.991-151.557.184-41.722 20.978-80.406 55.715-103.564l19.276-12.851 19.275 12.851c34.738 23.158 55.532 61.842 55.716 103.564-7.401 49.468-14.991 100.59-14.991 151.557zm25.314-226.684c-11.808-21.13-28.576-39.518-49.398-53.399l-20.916-13.945v-21.972c0-8.284-6.716-15-15-15s-15 6.716-15 15v21.972l-20.917 13.945c-20.822 13.881-37.589 32.269-49.397 53.399-2.799-24.845-4.686-49.74-4.686-74.316 0-49.626 40.374-90 90-90s90 40.374 90 90c0 24.576-1.887 49.471-4.686 74.316z" data-original="#000000" class="active-path" data-old_color="#000000" fill="#FFFFFF"/></g> </svg>
