<svg height="512" viewBox="0 0 512 512" width="512" xmlns="http://www.w3.org/2000/svg"><path d="m282.91 226.91a8 8 0 1 0 -5.66 2.34 7.949 7.949 0 0 0 5.66-2.34z"/><path d="m258.91 246.91a8 8 0 1 0 -5.66 2.34 8 8 0 0 0 5.66-2.34z"/><path d="m234.91 266.91a8 8 0 1 0 -5.66 2.34 8 8 0 0 0 5.66-2.34z"/><path d="m87.59 281.95a8.184 8.184 0 0 0 1.4-.12 8 8 0 0 0 -1.38-15.88 8.184 8.184 0 0 0 -1.4.12 8 8 0 0 0 1.38 15.88z"/><path d="m498.05 201.5a327.989 327.989 0 0 0 -17.19-41.76 13.989 13.989 0 0 0 -12.52-7.74 14.028 14.028 0 0 0 -13.02 8.87 23.9 23.9 0 0 1 -22.29 15.13h-89.03a23.812 23.812 0 0 1 -14.41-4.81 95.778 95.778 0 0 0 -57.59-19.19h-2.84l-27.5 22.343-4-4a8 8 0 0 0 -11.32 11.32l2.832 2.83-11.787 9.577-3.725-3.727a8 8 0 0 0 -11.32 11.32l2.556 2.555-11.787 9.576-3.449-3.451a8 8 0 0 0 -11.32 11.32l2.28 2.279-40.05 32.538-22.85 4.03a8 8 0 0 0 1.38 15.88 8.184 8.184 0 0 0 1.4-.12l26.92-4.75h.01l44.57-36.21 8.974 8.97a8 8 0 1 0 11.31-11.31l-7.8-7.8 11.792-9.581 8.7 8.694a8 8 0 1 0 11.31-11.31l-7.524-7.527 11.793-9.581 8.421 8.418a8 8 0 1 0 11.31-11.31l-7.248-7.251 21.742-17.672a79.216 79.216 0 0 1 45.18 15.93q1.368 1.028 2.816 1.93l-16.433 16.433a8 8 0 0 0 11.314 11.314l21.907-21.908a40.07 40.07 0 0 0 4.416.251h89.03a39.923 39.923 0 0 0 35.38-21.33 317.373 317.373 0 0 1 14.48 35.88c5.27 15.8 11.55 39.39 11.53 62.04 0 17.31-3.59 31.92-10.68 43.41h-267.72a8 8 0 0 0 0 16h90.122a116.8 116.8 0 0 0 -21.362 16h-268.76a58.981 58.981 0 0 1 42.39-56.43 8 8 0 1 0 -4.44-15.37 74.713 74.713 0 0 0 -53.95 71.8 16.034 16.034 0 0 0 16 16h275.31l2.35-2.34a100.557 100.557 0 0 1 71.59-29.66h10.75v16a16.019 16.019 0 0 0 16 16h88a16.019 16.019 0 0 0 16-16v-21.543c9.556-14.446 14.4-32.546 14.4-53.867-.01-19.89-4.17-42.46-12.35-67.09zm-18.05 142.5h-88v-16h88z"/><path d="m152 328a8 8 0 0 0 0-16h-32a8 8 0 0 0 0 16z"/><circle cx="184" cy="320" r="8"/></svg>