<?xml version="1.0"?>
<svg xmlns="http://www.w3.org/2000/svg" id="Layer" enable-background="new 0 0 64 64" height="512px" viewBox="0 0 64 64" width="512px"><g><path d="m46 32h-10c-2.206 0-4-1.794-4-4v-1-4-4-4-1c0-3.309-2.691-6-6-6h-17c-.553 0-1 .448-1 1v46c0 .552.447 1 1 1h13c.379 0 .725-.214.894-.553l1.106-2.211 1.105 2.211c.17.339.516.553.895.553h29c.553 0 1-.448 1-1v-13c0-5.514-4.486-10-10-10zm0 2c4.411 0 8 3.589 8 8v4h-16v-4c0-4.411 3.589-8 8-8zm-16-8h-5.973v-2h5.973zm0-8h-5.973v-2h5.973zm-12.433-8c-.954 1.063-1.54 2.462-1.54 4v9c0 .552.447 1 1 1s1-.448 1-1v-9c0-2.206 1.794-4 4-4h3.973c2.206 0 4 1.794 4 4h-6.973c-.553 0-1 .448-1 1v4c0 .552.447 1 1 1h6.973v2h-6.973c-.553 0-1 .448-1 1v4c0 .552.447 1 1 1h6.973c0 3.309 2.691 6 6 6h4.006c-1.92 1.442-3.292 3.564-3.789 6h-9.217c-.553 0-1 .448-1 1s.447 1 1 1h9v4h-26v-4h11c.553 0 1-.448 1-1s-.447-1-1-1h-11v-30zm36.433 44h-27.382l-1.724-3.447c-.34-.678-1.449-.678-1.789 0l-1.723 3.447h-11.382v-6h44z" data-original="#000000" class="active-path" data-old_color="#000000" fill="#FFFFFF"/><circle cx="24" cy="41" r="1" data-original="#000000" class="active-path" data-old_color="#000000" fill="#FFFFFF"/></g> </svg>
