<?xml version="1.0"?>
<svg xmlns="http://www.w3.org/2000/svg" height="512px" viewBox="0 -126 512.00028 512" width="512px"><g><path d="m511.050781 192.828125c-1.402343-4.203125-4.296875-7.75-8.078125-9.984375 1.425782-6.402344 2.226563-16.105469-2.472656-25.085938-4.933594-9.429687-14.398438-15.582031-28.125-18.28125-6.121094-1.199218-12.640625-1.839843-19.542969-2.519531-18.816406-1.851562-42.238281-4.15625-79.097656-18.871093-17.507813-6.992188-36.269531-16.070313-56.449219-27.328126 1.25-3.242187.160156-7.027343-2.839844-9.0625-3.324218-2.253906-7.792968-1.523437-10.253906 1.570313-3.304687-1.9375-6.644531-3.929687-10.023437-5.976563 1.621093-3.359374.585937-7.484374-2.589844-9.636718-3.355469-2.273438-7.871094-1.511719-10.316406 1.65625-3.550781-2.242188-7.140625-4.535156-10.773438-6.894532l.261719-.386718c2.363281-3.492188 1.453125-8.238282-2.042969-10.605469-3.488281-2.367187-8.242187-1.453125-10.605469 2.039063l-.367187.542968c-2.792969-1.875-5.613281-3.777344-8.457031-5.714844l.363281-.539062c2.367187-3.492188 1.453125-8.238281-2.039063-10.605469-3.492187-2.367187-8.242187-1.453125-10.609374 2.039063l-.28125.417968c-7.417969-5.191406-14.992188-10.605468-22.734376-16.246093-.03125-.019531-.058593-.035157-.085937-.054688-.011719-.007812-.023437-.015625-.03125-.023437-.101563-.070313-10.015625-7.378906-10.015625-15.640625 0-4.21875-3.417969-7.636719-7.636719-7.636719s-7.636719 3.417969-7.636719 7.636719c0 6.992187 2.925782 14.125 8.457032 20.625 1.222656 1.4375 2.4375 2.6875 3.546875 3.742187-4.511719 11.75-19.835938 43.339844-57.089844 53.613282-4.066406 1.125-6.453125 5.328124-5.332031 9.394531 1.125 4.066406 5.328125 6.453125 9.394531 5.332031 19.128906-5.277344 33.308594-15.132812 43.683594-25.769531l102.328125 68.191406-57.511719 66.566406c-33.339844-8.796875-102.007813-20.429687-152.3125-20.878906-6.871094-7.542969-8.273437-24.976563-3.90625-49.640625 2.609375-14.722656 6.679687-28.511719 9.125-36.132812 7.25 1.183593 15.136719 1.882812 23.664063 1.882812.925781 0 1.863281-.007812 2.800781-.023438 4.21875-.078124 7.578125-3.554687 7.5-7.773437-.074219-4.21875-3.503907-7.574219-7.773438-7.5-48.890625.878906-75.199219-24.425781-75.4375-24.660156-1.667969-1.667969-4.015625-2.472657-6.351562-2.175781-2.339844.292968-4.414063 1.652343-5.617188 3.679687-.484375.816406-11.945312 20.289063-18.8125 45.902344-7.761719 28.964843-6.402343 54.207031 3.816407 73.933593-1.523438.660157-2.972657 1.496094-4.289063 2.550782-4.179687 3.347656-6.746094 8.332031-7.039063 13.679687l-1.3867182 25.265625c-.5312498 9.691406 6.2890622 18.152344 15.8632812 19.679688 27.269531 4.351562 96.5 13.546875 150.332031 4.941406 31.6875-5.074219 47.292969-2 67.050782 1.886719 16.074218 3.160156 35.285156 6.941406 67.363281 6.941406 8.039062 0 16.898437-.238281 26.707031-.78125 31.695312-1.765625 61.878906-5.886719 89.710938-12.25 4.113281-.9375 6.683593-5.035156 5.746093-9.148437-.941406-4.109376-5.035156-6.679688-9.148437-5.742188-26.996094 6.171875-56.316406 10.171875-87.15625 11.886719-47.023438 2.609375-70.003906-1.910157-90.273438-5.898438-20.410156-4.015625-38.039062-7.484375-72.410156-1.980469-17.207031 2.75-65.835938 7.777344-145.511719-4.941406-1.824219-.289062-3.121093-1.90625-3.019531-3.757812l1.386719-25.265625c.074219-1.386719.867187-2.21875 1.332031-2.59375.472656-.378907 1.472656-.972657 2.882812-.738281 11.050782 1.839843 30.40625 4.03125 59.867188 4.03125 51.640625 0 124.917969 12.773437 155.828125 21.601562 29.027344 8.296875 67.148437 11.101562 107.328125 7.902344 49.832031-3.96875 99.84375-16.554688 148.636719-37.40625 1.035156-.4375 1.933593-.167969 2.378906.03125.453125.203125 1.273437.710937 1.640625 1.820312.414062 1.238282 0 2.589844-1.039062 3.359375-11.355469 8.46875-30.207032 17.066407-53.078126 24.210938-4.023437 1.257812-6.269531 5.542969-5.011718 9.566406 1.257812 4.027344 5.539062 6.273437 9.566406 5.011719 24.476562-7.644532 44.953125-17.070313 57.652344-26.542969 6.335937-4.71875 8.90625-12.9375 6.398437-20.4375zm-297.882812-151.203125c5.101562 3.667969 10.085937 7.195312 14.984375 10.613281l-5.089844 7.515625c-2.367188 3.492188-1.453125 8.242188 2.039062 10.605469 1.3125.890625 2.800782 1.316406 4.277344 1.316406 2.445313 0 4.851563-1.175781 6.328125-3.355469l5.019531-7.40625c2.855469 1.941407 5.679688 3.847657 8.464844 5.707032l-5.023437 7.410156c-2.363281 3.492188-1.449219 8.242188 2.039062 10.605469 1.3125.890625 2.804688 1.316406 4.277344 1.316406 2.449219 0 4.855469-1.175781 6.332031-3.351563l5.132813-7.578124c3.652343 2.367187 7.238281 4.652343 10.757812 6.871093l-5.667969 8.371094c-2.367187 3.492187-1.453124 8.242187 2.039063 10.605469 1.3125.890625 2.800781 1.316406 4.273437 1.316406 2.449219 0 4.855469-1.175781 6.332032-3.355469l6.03125-8.898437c3.367187 2.039062 6.675781 4.011718 9.921875 5.917968l-5.730469 8.457032c-2.367188 3.492187-1.453125 8.242187 2.039062 10.609375 1.3125.886719 2.800782 1.3125 4.277344 1.3125 2.445313 0 4.851563-1.171875 6.328125-3.351563l6.371094-9.40625c3.113281 1.738282 6.160156 3.410156 9.148437 5.019532l-4.949218 24.753906c-.230469 1.152344-1.046875 1.652344-1.511719 1.84375-.46875.191406-1.398437.421875-2.378906-.230469l-108.109375-72.046875c5.703125-7.898438 9.574218-15.464844 12.046875-21.1875zm-176.453125 40.175781c7.347656 5.28125 19.828125 12.660157 37.25 17.566407-2.597656 8.214843-6.511719 21.8125-9.140625 36.585937-4.027344 22.621094-3.601563 40.109375 1.230469 52.289063-15.425782-.425782-27.140626-1.484376-35.625-2.589844-24.113282-33.578125-3.261719-84.445313 6.285156-103.851563zm215.871094 131.753907 54.710937-63.324219c1.097656.210937 2.214844.328125 3.335937.328125 2.304688 0 4.621094-.449219 6.824219-1.359375 5.496094-2.28125 9.476563-7.125 10.644531-12.960938l4.074219-20.386719c60.554688 30.542969 95.078125 33.9375 119.160157 36.308594 6.808593.667969 12.691406 1.246094 18.09375 2.308594 8.917968 1.75 14.804687 5.21875 17.503906 10.304688 3.078125 5.8125 1.742187 12.902343.675781 16.601562-.355469.125-.710937.238281-1.0625.386719-94.890625 40.546875-182.378906 42.824219-233.960937 31.792969zm0 0" data-original="#000000" class="active-path" data-old_color="#000000" fill="#FFFFFF"/></g> </svg>
