<svg height="512pt" viewBox="0 -44 512 511" width="512pt" xmlns="http://www.w3.org/2000/svg"><path d="m261.539062.5v136.675781c0 21.8125-17.75 39.5625-39.5625 39.5625h-97.71875c-68.515624 0-124.257812 55.742188-124.257812 124.253907v122.492187h308.011719l36.773437-9.507813 35.316406 9.507813h131.898438v-422.984375zm220.402344 32.292969v51.636719h-190.34375v-51.636719zm-451.882812 268.199219c0-41.808594 27.382812-77.339844 65.15625-89.609376v128.449219h-65.15625zm451.882812 92.433593h-97.867187l-39.132813-10.535156-40.753906 10.535156h-274.128906v-23.535156h451.882812zm-54.667968-53.589843v-10.792969c0-33.269531 23.441406-61.152344 54.667968-68.046875v78.835937h-54.667968zm54.667968-109.417969c-47.898437 7.269531-84.726562 48.726562-84.726562 98.625v10.792969h-271.941406v-133.039063h96.703124c4.675782 0 9.246094-.472656 13.664063-1.355469l55.964844 50.074219 20.039062-22.398437-46.363281-41.488282c5.945312-4.738281 11.097656-10.425781 15.230469-16.832031h71.699219v-30.058594h-61.03125c.269531-2.484375.417968-5.007812.417968-7.5625v-22.6875h190.34375zm0 0"/></svg>