<?xml version="1.0"?>
<svg xmlns="http://www.w3.org/2000/svg" xmlns:xlink="http://www.w3.org/1999/xlink" version="1.1" id="Capa_1" x="0px" y="0px" viewBox="0 0 470 470" style="enable-background:new 0 0 470 470;" xml:space="preserve" width="512px" height="512px" class=""><g><g>
	<path d="M462.5,396.681h-2.285v-26.057c0-26.271-20.847-52.355-46.471-58.147l-117.18-26.485   c-18.852-4.261-34.777-24.189-34.777-43.516v-98.843c11.288-3.261,19.569-13.681,19.569-26.005V48.704   c0-14.926-12.144-27.07-27.069-27.07H27.07C12.144,21.634,0,33.777,0,48.704v68.925c0,12.324,8.282,22.744,19.57,26.005v253.047   h-2.285c-4.143,0-7.5,3.358-7.5,7.5v36.686c0,4.142,3.357,7.5,7.5,7.5H462.5c4.143,0,7.5-3.358,7.5-7.5v-36.686   C470,400.039,466.643,396.681,462.5,396.681z M293.258,300.623l117.18,26.485c18.852,4.261,34.777,24.189,34.777,43.516v26.057   H118.179V249.976h129.167C250.813,273.541,270.08,295.383,293.258,300.623z M15,117.628V48.704c0-6.655,5.415-12.07,12.07-12.07   h227.217c6.655,0,12.069,5.415,12.069,12.07v68.925c0,6.655-5.414,12.07-12.069,12.07H27.07C20.415,129.698,15,124.284,15,117.628z    M34.57,144.698h212.217v90.277H118.179v-67.777c0-4.142-3.357-7.5-7.5-7.5s-7.5,3.358-7.5,7.5v229.482H34.57V144.698z    M455,433.366H24.785v-21.686H455V433.366z" data-original="#000000" class="active-path" data-old_color="#000000" fill="#FFFFFF"/>
	<path d="M61.796,76.496c4.135,0,7.5-3.365,7.5-7.5s-3.365-7.5-7.5-7.5s-7.5,3.365-7.5,7.5S57.66,76.496,61.796,76.496z" data-original="#000000" class="active-path" data-old_color="#000000" fill="#FFFFFF"/>
	<path d="M91.796,97.496c4.135,0,7.5-3.365,7.5-7.5s-3.365-7.5-7.5-7.5s-7.5,3.365-7.5,7.5S87.66,97.496,91.796,97.496z" data-original="#000000" class="active-path" data-old_color="#000000" fill="#FFFFFF"/>
</g></g> </svg>
