<?xml version="1.0" standalone="no"?><!-- Generator: Gravit.io --><svg xmlns="http://www.w3.org/2000/svg" xmlns:xlink="http://www.w3.org/1999/xlink" style="isolation:isolate" viewBox="0 0 511 511" width="511" height="511"><defs><clipPath id="_clipPath_vT2hkJS1vXNC67Xdwm9oxR6fklMXUx12"><rect width="511" height="511"/></clipPath></defs><g clip-path="url(#_clipPath_vT2hkJS1vXNC67Xdwm9oxR6fklMXUx12)"><g id="Grupo"><g id="Grupo"><linearGradient id="_lgradient_0" x1="0%" y1="50%" x2="100%" y2="50%"><stop offset="0%" stop-opacity="1" style="stop-color:rgb(32,32,164)"/><stop offset="100%" stop-opacity="1" style="stop-color:rgb(79,79,255)"/></linearGradient><path d=" M 495.515 256.015 L 495 256.015 L 495 231.499 C 495 221.166 488.289 212.377 479 209.244 L 479 103.491 C 479 99.357 475.648 96.005 471.514 96.005 L 39.487 96.005 C 35.353 96.005 32.001 99.357 32.001 103.491 L 32.001 209.243 C 22.712 212.376 16.001 221.166 16.001 231.498 L 16.001 256.014 L 15.486 256.014 C 6.946 256.015 0 262.963 0 271.5 L 0 335.504 C 0 344.043 6.946 350.991 15.486 350.991 L 16.001 350.991 L 16.001 407.509 C 16.001 411.643 19.352 414.995 23.486 414.995 L 39.487 414.995 C 42.921 414.995 45.915 412.656 46.749 409.325 L 61.332 350.991 L 449.668 350.991 L 464.251 409.325 C 465.084 412.656 468.078 414.995 471.513 414.995 L 487.514 414.995 C 491.648 414.995 494.999 411.643 494.999 407.509 L 494.999 350.991 L 495.514 350.991 C 504.054 350.991 511 344.043 511 335.504 L 511 271.5 C 511.001 262.963 504.055 256.015 495.515 256.015 Z  M 33.642 400.025 L 30.971 400.025 L 30.971 350.992 L 45.901 350.992 L 33.642 400.025 Z  M 480.031 400.025 L 480.031 400.025 L 477.359 400.025 L 465.101 350.992 L 480.031 350.992 L 480.031 400.025 Z  M 495.515 336.02 L 15.486 336.02 C 15.201 336.02 14.971 335.79 14.971 335.504 L 14.971 271.5 C 14.971 271.216 15.201 270.985 15.486 270.985 L 439.511 270.985 C 443.645 270.985 446.996 267.634 446.996 263.5 C 446.996 259.366 443.645 256.014 439.511 256.014 L 30.971 256.014 L 30.971 231.498 C 30.971 226.803 34.792 222.983 39.487 222.983 L 55.489 222.983 C 59.622 222.983 62.974 219.632 62.974 215.498 C 62.974 211.364 59.622 208.012 55.489 208.012 L 46.972 208.012 L 46.972 110.976 L 464.028 110.976 L 464.028 208.012 L 422.995 208.012 L 422.995 167.495 C 422.995 154.544 412.459 144.008 399.509 144.008 L 287.502 144.008 C 274.551 144.008 264.016 154.545 264.016 167.495 L 264.016 208.012 L 246.985 208.012 L 246.985 167.495 C 246.985 154.544 236.449 144.008 223.499 144.008 L 111.491 144.008 C 98.54 144.008 88.005 154.545 88.005 167.495 L 88.005 208.012 L 87.49 208.012 C 83.356 208.012 80.005 211.364 80.005 215.498 C 80.005 219.632 83.356 222.983 87.49 222.983 L 471.513 222.983 C 476.209 222.983 480.029 226.804 480.029 231.498 L 480.029 256.014 L 471.514 256.014 C 467.38 256.014 464.029 259.366 464.029 263.5 C 464.029 267.634 467.38 270.985 471.514 270.985 L 495.514 270.985 C 495.799 270.985 496.029 271.216 496.029 271.5 L 496.029 335.504 L 496.03 335.504 C 496.03 335.789 495.8 336.02 495.515 336.02 Z  M 408.024 167.495 L 408.024 208.012 L 278.987 208.012 L 278.987 167.495 C 278.987 162.8 282.807 158.979 287.502 158.979 L 399.509 158.979 C 404.205 158.978 408.024 162.799 408.024 167.495 Z  M 232.013 167.495 L 232.013 208.012 L 102.976 208.012 L 102.976 167.495 C 102.976 162.8 106.796 158.979 111.491 158.979 L 223.498 158.979 C 228.194 158.978 232.013 162.799 232.013 167.495 Z " fill="url(#_lgradient_0)"/></g></g></g></svg>